<svg id="Layer_1" data-name="Layer 1" xmlns="http://www.w3.org/2000/svg" viewBox="0 0 512 512"><title>music-note</title><path d="M0,256C0,114.62,114.62,0,256,0S512,114.63,512,256,397.37,512,256,512,0,397.38,0,256Z" fill="#009d00"/><path d="M378.9,133.31a2.4,2.4,0,0,0-3.18-2.44L217.88,173.35a4.54,4.54,0,0,0-3.18,4.15V321a2.12,2.12,0,0,1-3.07,2.12s-20-7.62-32.36-7.13c-12.86.52-24.86,3.74-35.16,11.84-14.89,11.72-14.85,29.92,0,41.69a45,45,0,0,0,15.44,8.19c20,5.79,43.44,5.38,60.31-8.22,7.25-5.84,11.28-13.13,11.24-22.86C231,321,231,210.5,231,210.5a4.54,4.54,0,0,1,3.18-4.15l125.25-33.71a2.4,2.4,0,0,1,3.18,2.44v99.53a2.12,2.12,0,0,1-3.08,2.12s-20-7.62-32.36-7.13c-12.86.51-24.86,3.74-35.15,11.83-14.89,11.73-14.85,29.93,0,41.7a45.15,45.15,0,0,0,15.45,8.19c20,5.79,43.45,5.37,60.31-8.22C375,317.26,379.08,310,379,300.24,378.87,267,378.9,133.31,378.9,133.31Z" fill="#fff" fill-rule="evenodd"/></svg>